<?xml version="1.0" encoding="utf-8"?>
<svg xmlns="http://www.w3.org/2000/svg" xmlns:xlink="http://www.w3.org/1999/xlink" style="margin: auto; background: none; display: block; z-index: 1; position: relative; shape-rendering: auto;" width="2560" height="1298" preserveAspectRatio="xMidYMid" viewBox="0 0 2560 1298">
<g transform=""><path id="path0" d="M 85.98152008478918 1205.0574642101874
c 0 20.584832806692578 -5.036714410148184 5.912664742347869 -10.949379152496054 5.912664742347869
S 64.08276177979708 1225.6422970168799 64.08276177979708 1205.0574642101874
s 5.036714410148184 -5.912664742347869 10.949379152496054 -5.912664742347869
S 85.98152008478918 1184.472631403495 85.98152008478918 1205.0574642101874
z" fill="none" stroke="none"></path>
<circle cx="0" cy="0" r="7.650276332558186" fill="#0c3646">
  <animateMotion begin="-0.6151341251507669s" dur="10s" repeatCount="indefinite">
    <mpath xlink:href="#path0"></mpath>
  </animateMotion>
</circle><path id="path1" d="M 1648.3610739771825 262.4103823798348
c 0 34.53149443877252 -8.449195447784764 9.918620743051681 -18.367816190836447 9.918620743051681
S 1611.6254415955095 296.94187681860734 1611.6254415955095 262.4103823798348
s 8.449195447784764 -9.918620743051681 18.367816190836447 -9.918620743051681
S 1648.3610739771825 227.8788879410623 1648.3610739771825 262.4103823798348
z" fill="none" stroke="none"></path>
<circle cx="0" cy="0" r="5.517455388211638" fill="#1991bf">
  <animateMotion begin="-4.4092892151065755s" dur="10s" repeatCount="indefinite">
    <mpath xlink:href="#path1"></mpath>
  </animateMotion>
</circle><path id="path2" d="M 1941.6256466193802 1091.6553000598071
c 0 19.75734629348231 -4.834244305852054 5.674982446000238 -10.509226751852292 5.674982446000238
S 1920.6071931156755 1111.4126463532893 1920.6071931156755 1091.6553000598071
s 4.834244305852054 -5.674982446000238 10.509226751852292 -5.674982446000238
S 1941.6256466193802 1071.897953766325 1941.6256466193802 1091.6553000598071
z" fill="none" stroke="none"></path>
<circle cx="0" cy="0" r="4.1016133084042785" fill="#14ade8">
  <animateMotion begin="-2.3697461659993113s" dur="10s" repeatCount="indefinite">
    <mpath xlink:href="#path2"></mpath>
  </animateMotion>
</circle><path id="path3" d="M 355.86918723428386 173.27391641104455
c 0 25.72169159977849 -6.293605391435162 7.388145459510844 -13.681750850946006 7.388145459510844
S 328.50568553239185 198.99560801082305 328.50568553239185 173.27391641104455
s 6.293605391435162 -7.388145459510844 13.681750850946006 -7.388145459510844
S 355.86918723428386 147.55222481126606 355.86918723428386 173.27391641104455
z" fill="none" stroke="none"></path>
<circle cx="0" cy="0" r="4.604234349479591" fill="#7bc9e8">
  <animateMotion begin="-8.770485971616582s" dur="10s" repeatCount="indefinite">
    <mpath xlink:href="#path3"></mpath>
  </animateMotion>
</circle><path id="path4" d="M 1319.7238394607791 1205.7182520157317
c 0 29.721831804491153 -7.272363101098898 8.537121901290012 -15.80948500238891 8.537121901290012
S 1288.104869456001 1235.4400838202228 1288.104869456001 1205.7182520157317
s 7.272363101098898 -8.537121901290012 15.80948500238891 -8.537121901290012
S 1319.7238394607791 1175.9964202112405 1319.7238394607791 1205.7182520157317
z" fill="none" stroke="none"></path>
<circle cx="0" cy="0" r="7.453580996647853" fill="#7bc9e8">
  <animateMotion begin="-0.6566196574477501s" dur="10s" repeatCount="indefinite">
    <mpath xlink:href="#path4"></mpath>
  </animateMotion>
</circle><path id="path5" d="M 411.1591567332854 55.48259332997235
c 0 19.722365526080456 -4.825685181913302 5.664934778767791 -10.490619960681094 5.664934778767791
S 390.1779168119232 75.20495885605281 390.1779168119232 55.48259332997235
s 4.825685181913302 -5.664934778767791 10.490619960681094 -5.664934778767791
S 411.1591567332854 35.760227803891894 411.1591567332854 55.48259332997235
z" fill="none" stroke="none"></path>
<circle cx="0" cy="0" r="7.246405071795244" fill="#2e64db">
  <animateMotion begin="-7.6471947775772176s" dur="10s" repeatCount="indefinite">
    <mpath xlink:href="#path5"></mpath>
  </animateMotion>
</circle><path id="path6" d="M 498.044854337495 794.4046165978747
c 0 28.04620585592623 -6.862369517939396 8.055825086276684 -14.91819460421608 8.055825086276684
S 468.20846512906286 822.4508224538009 468.20846512906286 794.4046165978747
s 6.862369517939396 -8.055825086276684 14.91819460421608 -8.055825086276684
S 498.044854337495 766.3584107419484 498.044854337495 794.4046165978747
z" fill="none" stroke="none"></path>
<circle cx="0" cy="0" r="6.3932688248239" fill="#1991bf">
  <animateMotion begin="-5.129858480294509s" dur="10s" repeatCount="indefinite">
    <mpath xlink:href="#path6"></mpath>
  </animateMotion>
</circle><path id="path7" d="M 316.8550528928837 1155.2900490078998
c 0 29.688427892669374 -7.2641898035254835 8.527527160660352 -15.791716964185836 8.527527160660352
S 285.2716189645121 1184.9784769005691 285.2716189645121 1155.2900490078998
s 7.2641898035254835 -8.527527160660352 15.791716964185836 -8.527527160660352
S 316.8550528928837 1125.6016211152305 316.8550528928837 1155.2900490078998
z" fill="none" stroke="none"></path>
<circle cx="0" cy="0" r="7.758025576986292" fill="#14ade8">
  <animateMotion begin="-7.078916196289939s" dur="10s" repeatCount="indefinite">
    <mpath xlink:href="#path7"></mpath>
  </animateMotion>
</circle><path id="path8" d="M 199.11511358437042 565.7124377524962
c 0 29.29891107419283 -7.168882496876968 8.415644670246877 -15.584527167123845 8.415644670246877
S 167.94605925012274 595.011348826689 167.94605925012274 565.7124377524962
s 7.168882496876968 -8.415644670246877 15.584527167123845 -8.415644670246877
S 199.11511358437042 536.4135266783034 199.11511358437042 565.7124377524962
z" fill="none" stroke="none"></path>
<circle cx="0" cy="0" r="5.98022060272981" fill="#1991bf">
  <animateMotion begin="-2.3822978244007365s" dur="10s" repeatCount="indefinite">
    <mpath xlink:href="#path8"></mpath>
  </animateMotion>
</circle><path id="path9" d="M 849.1597278485341 12.905417348244951
c 0 30.20122176415505 -7.389660644420916 8.674819017363685 -16.064479661784603 8.674819017363685
S 817.0307685249649 43.1066391124 817.0307685249649 12.905417348244951
s 7.389660644420916 -8.674819017363685 16.064479661784603 -8.674819017363685
S 849.1597278485341 -17.295804415910098 849.1597278485341 12.905417348244951
z" fill="none" stroke="none"></path>
<circle cx="0" cy="0" r="5.120616715568533" fill="#7bc9e8">
  <animateMotion begin="-1.1375574008405076s" dur="10s" repeatCount="indefinite">
    <mpath xlink:href="#path9"></mpath>
  </animateMotion>
</circle><path id="path10" d="M 740.4645110999246 47.08761766696003
c 0 19.043723013058383 -4.659634354258966 5.470005546304004 -10.129639900562971 5.470005546304004
S 720.2052312987986 66.13134068001841 720.2052312987986 47.08761766696003
s 4.659634354258966 -5.470005546304004 10.129639900562971 -5.470005546304004
S 740.4645110999246 28.043894653901646 740.4645110999246 47.08761766696003
z" fill="none" stroke="none"></path>
<circle cx="0" cy="0" r="7.24810197999312" fill="#1991bf">
  <animateMotion begin="-9.080879274735295s" dur="10s" repeatCount="indefinite">
    <mpath xlink:href="#path10"></mpath>
  </animateMotion>
</circle><path id="path11" d="M 1188.6775662777036 543.8057659911317
c 0 29.831095959494224 -7.299097947535819 8.568506286237703 -15.867604233773523 8.568506286237703
S 1156.9423578101564 573.6368619506259 1156.9423578101564 543.8057659911317
s 7.299097947535819 -8.568506286237703 15.867604233773523 -8.568506286237703
S 1188.6775662777036 513.9746700316375 1188.6775662777036 543.8057659911317
z" fill="none" stroke="none"></path>
<circle cx="0" cy="0" r="7.448989809349644" fill="#0c3646">
  <animateMotion begin="-3.2959214333986075s" dur="10s" repeatCount="indefinite">
    <mpath xlink:href="#path11"></mpath>
  </animateMotion>
</circle><path id="path12" d="M 1111.0405453504777 943.9298810019608
c 0 25.413026630523035 -6.218080984064146 7.299486372597042 -13.51756735666119 7.299486372597042
S 1084.0054106371554 969.3429076324838 1084.0054106371554 943.9298810019608
s 6.218080984064146 -7.299486372597042 13.51756735666119 -7.299486372597042
S 1111.0405453504777 918.5168543714377 1111.0405453504777 943.9298810019608
z" fill="none" stroke="none"></path>
<circle cx="0" cy="0" r="7.239465097519989" fill="#14ade8">
  <animateMotion begin="-5.721865021883108s" dur="10s" repeatCount="indefinite">
    <mpath xlink:href="#path12"></mpath>
  </animateMotion>
</circle><path id="path13" d="M 1406.5013294732769 312.8474866427197
c 0 24.75392287953391 -6.056810917332764 7.110169337738464 -13.166980255071227 7.110169337738464
S 1380.1673689631345 337.60140952225356 1380.1673689631345 312.8474866427197
s 6.056810917332764 -7.110169337738464 13.166980255071227 -7.110169337738464
S 1406.5013294732769 288.0935637631858 1406.5013294732769 312.8474866427197
z" fill="none" stroke="none"></path>
<circle cx="0" cy="0" r="4.419846455208292" fill="#14ade8">
  <animateMotion begin="-3.0597626799873012s" dur="10s" repeatCount="indefinite">
    <mpath xlink:href="#path13"></mpath>
  </animateMotion>
</circle><path id="path14" d="M 2300.4879231968553 469.54406666284774
c 0 36.64741586756207 -8.966920903765185 10.526385408767828 -19.493306312533015 10.526385408767828
S 2261.501310571789 506.1914825304098 2261.501310571789 469.54406666284774
s 8.966920903765185 -10.526385408767828 19.493306312533015 -10.526385408767828
S 2300.4879231968553 432.89665079528567 2300.4879231968553 469.54406666284774
z" fill="none" stroke="none"></path>
<circle cx="0" cy="0" r="6.869288650977599" fill="#7bc9e8">
  <animateMotion begin="-8.419757406555178s" dur="10s" repeatCount="indefinite">
    <mpath xlink:href="#path14"></mpath>
  </animateMotion>
</circle><path id="path15" d="M 282.44579199205657 1019.4304232474539
c 0 28.438317204478256 -6.958311656414892 8.168452814052266 -15.126764470467158 8.168452814052266
S 252.19226305112227 1047.8687404519321 252.19226305112227 1019.4304232474539
s 6.958311656414892 -8.168452814052266 15.126764470467158 -8.168452814052266
S 282.44579199205657 990.9921060429756 282.44579199205657 1019.4304232474539
z" fill="none" stroke="none"></path>
<circle cx="0" cy="0" r="5.730706418940604" fill="#0c3646">
  <animateMotion begin="-9.30981903176642s" dur="10s" repeatCount="indefinite">
    <mpath xlink:href="#path15"></mpath>
  </animateMotion>
</circle><path id="path16" d="M 711.0100479861385 922.5494550616602
c 0 32.31833960453261 -7.907678839406914 9.282927333216813 -17.190606172623728 9.282927333216813
S 676.6288356408911 954.8677946661928 676.6288356408911 922.5494550616602
s 7.907678839406914 -9.282927333216813 17.190606172623728 -9.282927333216813
S 711.0100479861385 890.2311154571275 711.0100479861385 922.5494550616602
z" fill="none" stroke="none"></path>
<circle cx="0" cy="0" r="6.378845588919015" fill="#7bc9e8">
  <animateMotion begin="-6.558823979241122s" dur="10s" repeatCount="indefinite">
    <mpath xlink:href="#path16"></mpath>
  </animateMotion>
</circle><path id="path17" d="M 1409.9873763943883 1251.0040971401004
c 0 26.38055020794385 -6.454815476411792 7.577392081005148 -14.03220755741694 7.577392081005148
S 1381.9229612795543 1277.3846473480442 1381.9229612795543 1251.0040971401004
s 6.454815476411792 -7.577392081005148 14.03220755741694 -7.577392081005148
S 1409.9873763943883 1224.6235469321566 1409.9873763943883 1251.0040971401004
z" fill="none" stroke="none"></path>
<circle cx="0" cy="0" r="4.034123898869992" fill="#7bc9e8">
  <animateMotion begin="-4.75932123630761s" dur="10s" repeatCount="indefinite">
    <mpath xlink:href="#path17"></mpath>
  </animateMotion>
</circle><path id="path18" d="M 899.0102006700072 874.2888417412626
c 0 33.90892216017625 -8.296863932809083 9.739796790688924 -18.03666072349801 9.739796790688924
S 862.9368792230111 908.1977639014389 862.9368792230111 874.2888417412626
s 8.296863932809083 -9.739796790688924 18.03666072349801 -9.739796790688924
S 899.0102006700072 840.3799195810863 899.0102006700072 874.2888417412626
z" fill="none" stroke="none"></path>
<circle cx="0" cy="0" r="6.276866531144095" fill="#7bc9e8">
  <animateMotion begin="-9.685666620662106s" dur="10s" repeatCount="indefinite">
    <mpath xlink:href="#path18"></mpath>
  </animateMotion>
</circle><path id="path19" d="M 1668.697207603175 1003.5033432705059
c 0 24.28082619258202 -5.941053217333897 6.97427986382675 -12.915333081160647 6.97427986382675
S 1642.8665414408536 1027.784169463088 1642.8665414408536 1003.5033432705059
s 5.941053217333897 -6.97427986382675 12.915333081160647 -6.97427986382675
S 1668.697207603175 979.2225170779238 1668.697207603175 1003.5033432705059
z" fill="none" stroke="none"></path>
<circle cx="0" cy="0" r="5.5393186540242425" fill="#7bc9e8">
  <animateMotion begin="-1.5770236188517939s" dur="10s" repeatCount="indefinite">
    <mpath xlink:href="#path19"></mpath>
  </animateMotion>
</circle><path id="path20" d="M 22.52162798477047 890.4134669597552
c 0 22.63964361371254 -5.539487267184982 6.502876357130198 -12.042363624315179 6.502876357130198
S -1.5630992638598897 913.0531105734677 -1.5630992638598897 890.4134669597552
s 5.539487267184982 -6.502876357130198 12.042363624315179 -6.502876357130198
S 22.52162798477047 867.7738233460426 22.52162798477047 890.4134669597552
z" fill="none" stroke="none"></path>
<circle cx="0" cy="0" r="6.715575280731553" fill="#7bc9e8">
  <animateMotion begin="-2.391929092251883s" dur="10s" repeatCount="indefinite">
    <mpath xlink:href="#path20"></mpath>
  </animateMotion>
</circle><path id="path21" d="M 462.0058285615794 1150.2430853090407
c 0 32.12802464832744 -7.8611124139524575 9.228262398987669 -17.089374812940125 9.228262398987669
S 427.8270789356991 1182.3711099573682 427.8270789356991 1150.2430853090407
s 7.8611124139524575 -9.228262398987669 17.089374812940125 -9.228262398987669
S 462.0058285615794 1118.1150606607132 462.0058285615794 1150.2430853090407
z" fill="none" stroke="none"></path>
<circle cx="0" cy="0" r="6.441194254215051" fill="#2e64db">
  <animateMotion begin="-2.1628486765048294s" dur="10s" repeatCount="indefinite">
    <mpath xlink:href="#path21"></mpath>
  </animateMotion>
</circle><path id="path22" d="M 960.14383970432 464.53643357554165
c 0 35.81271071084352 -8.762684535631925 10.286629672263565 -19.04931420789549 10.286629672263565
S 922.0452112885291 500.3491442863852 922.0452112885291 464.53643357554165
s 8.762684535631925 -10.286629672263565 19.04931420789549 -10.286629672263565
S 960.14383970432 428.7237228646981 960.14383970432 464.53643357554165
z" fill="none" stroke="none"></path>
<circle cx="0" cy="0" r="4.953916391086529" fill="#7bc9e8">
  <animateMotion begin="-6.291758603132096s" dur="10s" repeatCount="indefinite">
    <mpath xlink:href="#path22"></mpath>
  </animateMotion>
</circle><path id="path23" d="M 2203.175713588862 1270.225992637719
c 0 20.145290602610142 -4.9291668495748215 5.78641325819653 -10.715580107771352 5.78641325819653
S 2181.744553373319 1290.3712832403291 2181.744553373319 1270.225992637719
s 4.9291668495748215 -5.78641325819653 10.715580107771352 -5.78641325819653
S 2203.175713588862 1250.0807020351087 2203.175713588862 1270.225992637719
z" fill="none" stroke="none"></path>
<circle cx="0" cy="0" r="4.190538573229649" fill="#2e64db">
  <animateMotion begin="-1.1016109441999378s" dur="10s" repeatCount="indefinite">
    <mpath xlink:href="#path23"></mpath>
  </animateMotion>
</circle><path id="path24" d="M 355.93085054614454 855.1749790009209
c 0 26.56466007590668 -6.499863635594187 7.630274702654046 -14.130138338248234 7.630274702654046
S 327.6705738696481 881.7396390768275 327.6705738696481 855.1749790009209
s 6.499863635594187 -7.630274702654046 14.130138338248234 -7.630274702654046
S 355.93085054614454 828.6103189250142 355.93085054614454 855.1749790009209
z" fill="none" stroke="none"></path>
<circle cx="0" cy="0" r="4.448815872049436" fill="#0c3646">
  <animateMotion begin="-6.386513907148668s" dur="10s" repeatCount="indefinite">
    <mpath xlink:href="#path24"></mpath>
  </animateMotion>
</circle><path id="path25" d="M 806.301790680522 358.9673570527782
c 0 21.147586428746834 -5.174409445331672 6.074306740171964 -11.248716185503636 6.074306740171964
S 783.8043583095147 380.114943481525 783.8043583095147 358.9673570527782
s 5.174409445331672 -6.074306740171964 11.248716185503636 -6.074306740171964
S 806.301790680522 337.8197706240314 806.301790680522 358.9673570527782
z" fill="none" stroke="none"></path>
<circle cx="0" cy="0" r="6.55237395815161" fill="#7bc9e8">
  <animateMotion begin="-7.271284974172514s" dur="10s" repeatCount="indefinite">
    <mpath xlink:href="#path25"></mpath>
  </animateMotion>
</circle><path id="path26" d="M 829.8103192543276 1022.83709644719
c 0 21.718335630395064 -5.314060845734962 6.238245340645391 -11.552306186380353 6.238245340645391
S 806.7057068815668 1044.555432077585 806.7057068815668 1022.83709644719
s 5.314060845734962 -6.238245340645391 11.552306186380353 -6.238245340645391
S 829.8103192543276 1001.118760816795 829.8103192543276 1022.83709644719
z" fill="none" stroke="none"></path>
<circle cx="0" cy="0" r="5.869140511997567" fill="#7bc9e8">
  <animateMotion begin="-1.2573203250217846s" dur="10s" repeatCount="indefinite">
    <mpath xlink:href="#path26"></mpath>
  </animateMotion>
</circle><path id="path27" d="M 1262.4764518303957 602.0838075399744
c 0 29.959323277144165 -7.330472716748039 8.605337537052048 -15.935810253800087 8.605337537052048
S 1230.6048313227955 632.0431308171185 1230.6048313227955 602.0838075399744
s 7.330472716748039 -8.605337537052048 15.935810253800087 -8.605337537052048
S 1262.4764518303957 572.1244842628303 1262.4764518303957 602.0838075399744
z" fill="none" stroke="none"></path>
<circle cx="0" cy="0" r="7.886736914268296" fill="#2e64db">
  <animateMotion begin="-1.9244900125430164s" dur="10s" repeatCount="indefinite">
    <mpath xlink:href="#path27"></mpath>
  </animateMotion>
</circle><path id="path28" d="M 1807.4280443597168 180.33196895367448
c 0 22.0693249719341 -5.399941216537067 6.339061428108731 -11.739002644645797 6.339061428108731
S 1783.9500390704252 202.40129392560857 1783.9500390704252 180.33196895367448
s 5.399941216537067 -6.339061428108731 11.739002644645797 -6.339061428108731
S 1807.4280443597168 158.26264398174038 1807.4280443597168 180.33196895367448
z" fill="none" stroke="none"></path>
<circle cx="0" cy="0" r="5.392150345438335" fill="#2e64db">
  <animateMotion begin="-0.45828176067323145s" dur="10s" repeatCount="indefinite">
    <mpath xlink:href="#path28"></mpath>
  </animateMotion>
</circle><path id="path29" d="M 2183.4944973464562 810.8220556076848
c 0 23.08371276872255 -5.648142485964027 6.630428135696902 -12.27857062166093 6.630428135696902
S 2158.9373561031343 833.9057683764073 2158.9373561031343 810.8220556076848
s 5.648142485964027 -6.630428135696902 12.27857062166093 -6.630428135696902
S 2183.4944973464562 787.7383428389622 2183.4944973464562 810.8220556076848
z" fill="none" stroke="none"></path>
<circle cx="0" cy="0" r="6.494161461081191" fill="#0c3646">
  <animateMotion begin="-3.104993360236643s" dur="10s" repeatCount="indefinite">
    <mpath xlink:href="#path29"></mpath>
  </animateMotion>
</circle></g>
</svg>